<svg width="323" height="393" viewBox="0 0 323 393" fill="none" xmlns="http://www.w3.org/2000/svg">
<path fill-rule="evenodd" clip-rule="evenodd" d="M69.742 0.967025C40.7766 2.75714 -12.7848 19.3165 2.78056 172.5C4.86372 155 27.0747 121.4 78.0698 120C78.3267 119.993 78.583 119.985 78.8389 119.977C79.4003 119.992 79.9637 120 80.529 120L263 120C296.137 120 323 93.1371 323 60C323 26.8629 296.137 -1.44861e-06 263 0L80.5289 7.97683e-06C76.8464 8.13781e-06 73.2413 0.331766 69.742 0.967025ZM126.065 274.5V333.006C126.065 366.14 99.2047 393 66.0708 393C32.9369 393 6.07655 366.14 6.07655 333.006V215.994C6.07655 199.023 13.1237 183.697 24.4514 172.784C35.3599 161.509 50.6496 154.5 67.5764 154.5L257.547 154.5C290.684 154.5 317.547 181.363 317.547 214.5C317.547 247.637 290.684 274.5 257.547 274.5H126.065Z" fill="url(#paint0_linear_68_2874)"/>
<defs>
<linearGradient id="paint0_linear_68_2874" x1="-30.9999" y1="-22.5" x2="350" y2="501.5" gradientUnits="userSpaceOnUse">
<stop stop-color="#4455F0"/>
<stop offset="1" stop-color="#A9FFB2"/>
</linearGradient>
</defs>
</svg>